Coordinates
version=1
nRows=8
nColumns=63
inDegrees=yes

Units are S.I. units (second, meters, Newtons, ...)
If the header above contains a line with 'inDegrees', this indicates whether rotational values are in degrees (yes) or radians (no).

endheader
time	pelvis_tilt	pelvis_list	pelvis_rotation	pelvis_tx	pelvis_ty	pelvis_tz	hip_flexion_r	hip_adduction_r	hip_rotation_r	knee_angle_r	knee_angle_r_beta	ankle_angle_r	subtalar_angle_r	mtp_angle_r	hip_flexion_l	hip_adduction_l	hip_rotation_l	knee_angle_l	knee_angle_l_beta	ankle_angle_l	subtalar_angle_l	mtp_angle_l	L5_S1_Flex_Ext	L5_S1_Lat_Bending	L5_S1_axial_rotation	L4_L5_Flex_Ext	L4_L5_Lat_Bending	L4_L5_axial_rotation	L3_L4_Flex_Ext	L3_L4_Lat_Bending	L3_L4_axial_rotation	L2_L3_Flex_Ext	L2_L3_Lat_Bending	L2_L3_axial_rotation	L1_L2_Flex_Ext	L1_L2_Lat_Bending	L1_L2_axial_rotation	L1_T12_Flex_Ext	L1_T12_Lat_Bending	L1_T12_axial_rotation	Abs_r3	Abs_r2	Abs_r1	Abs_t1	Abs_t2	neck_flexion	neck_bending	neck_rotation	arm_flex_r	arm_add_r	arm_rot_r	elbow_flex_r	pro_sup_r	wrist_flex_r	wrist_dev_r	arm_flex_l	arm_add_l	arm_rot_l	elbow_flex_l	pro_sup_l	wrist_flex_l	wrist_dev_l
      3.13559322	     -4.05540248	     -8.44966130	     85.06538500	      0.32598189	      0.94046414	      0.67832311	     14.39773377	     -4.16464429	     -8.91746397	      8.06204824	      0.14070929	     22.23778025	      8.91790436	      0.00000000	     16.91217755	      0.51101489	     -1.08932770	      6.26559522	      0.10935527	     24.95612021	     11.90442908	      0.00000000	      0.04841950	     -0.82318119	      0.83297592	      0.08991986	     -1.09483098	      0.88503692	      0.07954840	     -2.00148275	      0.88503692	      0.05533865	     -2.00148275	      0.72885393	      0.04496235	     -1.67863108	      0.67679294	      0.02766690	     -1.27510766	      0.62473194	      0.34585566	     -9.31199026	      4.63276220	      0.00000000	      0.00000000	     15.84849751	      4.27345780	    -10.51957878	      4.84392981	     -8.65989712	     -6.97005678	     84.86191948	     83.66037013	    -10.33315769	     24.48290103	    -22.87994236	    -30.58769800	     20.86022880	     76.37135428	     81.24978956	     -1.81759457	      3.76439932
      3.15254237	     -4.00908035	     -8.45061199	     85.33362641	      0.32619226	      0.93987051	      0.67948164	     14.46713479	     -4.13945918	     -8.95939506	      8.08476235	      0.14110572	     22.43709966	      8.84463860	      0.00000000	     17.06083199	      0.49908309	     -1.19622908	      6.30105352	      0.10997413	     24.94625670	     11.87938963	      0.00000000	      0.01242008	     -0.82008757	      0.86985616	      0.02306533	     -1.09071647	      0.92422217	      0.02040495	     -1.99396092	      0.92422217	      0.01419491	     -1.99396092	      0.76112414	      0.01153329	     -1.67232258	      0.70675813	      0.00709683	     -1.27031565	      0.65239212	      0.08871540	     -9.27699462	      4.83787903	      0.00000000	      0.00000000	     15.71899405	      4.36315555	    -10.54514347	      4.23710416	     -8.61868166	     -6.75829762	     84.34112526	     83.75099084	    -10.26198986	     24.56016156	    -23.00275670	    -30.58126067	     20.98001266	     76.27966237	     81.24439367	     -1.86214303	      3.69252844
      3.16949153	     -3.92688744	     -8.52370935	     85.76147218	      0.32618120	      0.93927603	      0.68053567	     14.62455872	     -4.10339910	     -9.08103629	      8.21790779	      0.14342955	     22.63076397	      8.29189527	      0.00000000	     17.38952441	      0.42415945	     -2.12442496	      6.61636910	      0.11547743	     25.18958867	     13.29917929	      0.00000000	      0.00696409	     -0.81453863	      0.93424462	      0.01293302	     -1.08333638	      0.99263491	      0.01144131	     -1.98046922	      0.99263491	      0.00795926	     -1.98046922	      0.81746405	      0.00646686	     -1.66100717	      0.75907376	      0.00397928	     -1.26172033	      0.70068347	      0.04974382	     -9.21422387	      5.19598832	      0.00000000	      0.00000000	     14.72592077	      4.74612823	    -11.01026189	      3.47582432	     -8.56430011	     -7.10754789	     83.41863246	     85.33336306	     -7.95163933	     23.92977378	    -22.53268667	    -31.05593351	     22.84368862	     75.87342081	     80.51239343	     -4.69158059	      1.01580099
      3.18644068	     -3.88768791	     -8.55622126	     86.08042711	      0.32621371	      0.93851172	      0.68177881	     14.75445943	     -4.12283995	     -9.37848293	      8.35858163	      0.14588477	     22.76238889	      7.97739589	      0.00000000	     17.63278465	      0.42440254	     -2.08782158	      6.84617617	      0.11948832	     25.34192443	     13.50552280	      0.00000000	     -0.00514922	     -0.81351636	      1.01309103	     -0.00956261	     -1.08197676	      1.07640922	     -0.00845965	     -1.97798369	      1.07640922	     -0.00588504	     -1.97798369	      0.88645465	     -0.00478156	     -1.65892257	      0.82313646	     -0.00294226	     -1.26013685	      0.75981827	     -0.03678036	     -9.20265980	      5.63450839	      0.00000000	      0.00000000	     14.12982536	      4.94671916	    -11.41602671	      2.89142930	     -8.83801693	     -6.70304014	     82.48148684	     85.83383733	     -7.44512507	     23.47454428	    -22.45289506	    -31.00800359	     22.86177760	     76.01573087	     80.64295608	     -5.09717267	      0.79192685
      3.20338983	     -3.85215806	     -8.57684597	     86.49843275	      0.32634800	      0.93777459	      0.68326085	     14.83882368	     -4.15421006	     -9.76900834	      8.46657317	      0.14776958	     22.78238309	      7.53214902	      0.00000000	     17.88661923	      0.44134811	     -1.93233603	      7.09569774	      0.12384329	     25.48063571	     13.87544404	      0.00000000	     -0.02266871	     -0.81928864	      1.08899634	     -0.04209805	     -1.08965389	      1.15705862	     -0.03724242	     -1.99201840	      1.15705862	     -0.02590806	     -1.99201840	      0.95287180	     -0.02105016	     -1.67069339	      0.88480953	     -0.01295290	     -1.26907810	      0.81674726	     -0.16192030	     -9.26795693	      6.05667096	      0.00000000	      0.00000000	     13.75015682	      4.81115251	    -12.29251059	      2.39974670	     -8.92868196	     -6.60944300	     81.26386485	     86.61517983	     -6.37749686	     22.19373468	    -22.40384813	    -30.90674189	     22.53888332	     76.44960775	     81.31141509	     -6.18599680	      0.57373566
      3.22033898	     -3.87716619	     -8.48049437	     86.79321435	      0.32660704	      0.93727851	      0.68479737	     14.84472652	     -4.24242202	    -10.14844612	      8.62835089	      0.15059313	     22.70332836	      7.14440152	      0.00000000	     17.97262693	      0.50915462	     -1.69829906	      7.27309135	      0.12693939	     25.55995876	     14.09560685	      0.00000000	     -0.05473847	     -0.82989579	      1.22166210	     -0.10165481	     -1.10376141	      1.29801598	     -0.08992983	     -2.01780863	      1.29801598	     -0.06256060	     -2.01780863	      1.06895433	     -0.05083014	     -1.69232350	      0.99260045	     -0.03127756	     -1.28550859	      0.91624657	     -0.39099141	     -9.38794721	      6.79451808	      0.00000000	      0.00000000	     13.40335594	      4.87770674	    -12.75282011	      1.91814940	     -9.05786968	     -6.64431561	     80.26321970	     86.92225220	     -6.09808950	     21.86791292	    -22.13952579	    -30.78153050	     22.08608734	     77.01905642	     81.77350367	     -6.70209272	      0.60675091
      3.23728814	     -3.97527713	     -8.43308310	     87.01430878	      0.32740652	      0.93686254	      0.68632327	     14.86178931	     -4.31034447	     -9.88791971	      8.62899671	      0.15060440	     22.54489441	      6.17330316	      0.00000000	     18.08544293	      0.59793078	     -1.65086497	      7.41476563	      0.12941207	     25.51928343	     14.44997725	      0.00000000	     -0.07597498	     -0.86448440	      1.40488504	     -0.14109313	     -1.14976426	      1.49269035	     -0.12481929	     -2.10190738	      1.49269035	     -0.08683180	     -2.10190738	      1.22927441	     -0.07055036	     -1.76285660	      1.14146909	     -0.04341210	     -1.33908634	      1.05366378	     -0.54268166	     -9.77922047	      7.81354911	      0.00000000	      0.00000000	     13.03277637	      4.68318937	    -14.53046474	      1.30346274	     -8.92816159	     -7.23322759	     79.16173953	     87.28796255	     -5.24117009	     20.84138942	    -21.81317979	    -30.84711611	     21.65610859	     78.22603751	     84.03602015	     -8.88954909	      1.62353108
      3.25423729	     -4.06431521	     -8.27008116	     87.26932080	      0.32803831	      0.93681758	      0.68771628	     14.77272069	     -4.42883797	     -9.99118451	      8.67198422	      0.15135468	     22.26525993	      5.73696204	      0.00000000	     18.07328594	      0.71355339	     -1.49300587	      7.57668685	      0.13223813	     25.48930123	     14.60370838	      0.00000000	     -0.10762094	     -0.88858610	      1.59142098	     -0.19986285	     -1.18181952	      1.69088479	     -0.17681044	     -2.16050826	      1.69088479	     -0.12299997	     -2.16050826	      1.39249336	     -0.09993681	     -1.81200478	      1.29302955	     -0.06149461	     -1.37641988	      1.19356573	     -0.76872562	    -10.05186373	      8.85100606	      0.00000000	      0.00000000	     12.46879664	      4.89522604	    -15.36087289	      0.60701090	     -8.81382021	     -7.86477282	     78.34743346	     87.42223958	     -5.40913844	     20.42715609	    -21.18804016	    -30.95423564	     21.48720489	     79.07899285	     85.15955238	     -9.35126674	      1.40495210
